PathFileType	4	(X/Y/Z)	/Users/niels/Desktop/University/Third Semester/Perception and Action/Exam/Gymnastics Motion Tracking/Code for Gym Tracking/Analyzed Data/Start Salto/stsalto_bad_id2_1_Sports2D/stsalto_bad_id2_1_Sports2D_px_person00.trc
DataRate	CameraRate	NumFrames	NumMarkers	Units	OrigDataRate	OrigDataStartFrame	OrigNumFrames
29.84771573604061	29.84771573604061	9	22	m	29.84771573604061	49	197
Frame#	Time	Hip			RHip			RKnee			RAnkle			RBigToe			RSmallToe			RHeel			LHip			LKnee			LAnkle			LBigToe			LSmallToe			LHeel			Neck			Head			Nose			RShoulder			RElbow			RWrist			LShoulder			LElbow			LWrist		
		X1	Y1	Z1	X2	Y2	Z2	X3	Y3	Z3	X4	Y4	Z4	X5	Y5	Z5	X6	Y6	Z6	X7	Y7	Z7	X8	Y8	Z8	X9	Y9	Z9	X10	Y10	Z10	X11	Y11	Z11	X12	Y12	Z12	X13	Y13	Z13	X14	Y14	Z14	X15	Y15	Z15	X16	Y16	Z16	X17	Y17	Z17	X18	Y18	Z18	X19	Y19	Z19	X20	Y20	Z20	X21	Y21	Z21	X22	Y22	Z22
49	1.6416666666666666	0.8750045154712497	-0.2983498827479732	0.0	0.8720414832723177	-0.3036642564399893	0.0	0.7992126400250124	-0.41043085362564674	0.0	0.69692822860957	-0.46503149167975405	0.0	0.6765118508737297	-0.5136176180840032	0.0	0.669674838201648	-0.508178504278599	0.0	0.6822595410481054	-0.46821041596826773	0.0	0.8752734636042467	-0.30592829117195297	0.0	0.8133051052496141	-0.4049114552182518	0.0	0.7540531107335074	-0.32225221301381546	0.0	0.7043244650385473	-0.38656493205747744	0.0	0.7015771790550661	-0.38430516227156397	0.0	0.7502820933941073	-0.31551766332436365	0.0	0.983469595311754	-0.4208518124053611	0.0	1.0019470438883453	-0.490387105989967	0.0	0.9665705971648499	-0.4654736571034696	0.0	0.971143483541393	-0.4108418431550314	0.0	0.8919343241608226	-0.41310245932038864	0.0	0.8258402493256204	-0.44359614815091414	0.0	0.9839948042827272	-0.40917004889196584	0.0	0.8919658562221555	-0.41011802427543703	0.0	0.8343598800264884	-0.4325448946704363	0.0
50	1.6751700680272108	0.8887880880676401	-0.29350982042164503	0.0	0.8856520503190114	-0.29932985267877205	0.0	0.8060582746279956	-0.40276044680082823	0.0	0.7027086066356902	-0.4518945906771402	0.0	0.6820335676741528	-0.4992051458786339	0.0	0.6751906813531097	-0.4931104321171272	0.0	0.687451921249583	-0.4517996476417511	0.0	0.8892590731237684	-0.3016740456299768	0.0	0.8220475567321754	-0.39840692832036284	0.0	0.7710305456616526	-0.3106036529225399	0.0	0.7224699822475079	-0.3682148270761655	0.0	0.7164641949387623	-0.3880303048909515	0.0	0.7691007036523632	-0.3032778409846507	0.0	0.9854206832162629	-0.42510563877634305	0.0	1.0004464140165927	-0.49627848044537065	0.0	0.9658055214242737	-0.4697784316636548	0.0	0.973017128720172	-0.4148268140567285	0.0	0.890212795830612	-0.4079102532450966	0.0	0.8273216036206867	-0.4312485130231509	0.0	0.9883448269979712	-0.4146161997670884	0.0	0.8901773519546209	-0.40427289332031285	0.0	0.8355625055725944	-0.4142978514824817	0.0
51	1.708673469387755	0.9033224667139854	-0.28957085718533115	0.0	0.8994859291993414	-0.29548662203749976	0.0	0.8138691319394763	-0.3951656355605867	0.0	0.7088732082840062	-0.4386050412133552	0.0	0.6875635893296099	-0.484452830324069	0.0	0.6806610402165755	-0.47771889033198234	0.0	0.6925379200291938	-0.43248648179908467	0.0	0.9039976333494787	-0.2979586685301111	0.0	0.8316283208148592	-0.39229727698418765	0.0	0.7884616031471309	-0.30029080204274367	0.0	0.7425264856651594	-0.34040840614469947	0.0	0.7351677101622167	-0.3830534947552619	0.0	0.7871511575204311	-0.29211336907005175	0.0	0.9864356982796804	-0.4288347002503286	0.0	0.9984952645519586	-0.5014210072236688	0.0	0.9644863441497289	-0.4734595760907147	0.0	0.9739748588874942	-0.4181050410840719	0.0	0.8860743577129607	-0.40235864809970934	0.0	0.8281318993803181	-0.4197910742423777	0.0	0.9916906279542181	-0.4195577348222662	0.0	0.8863598918477057	-0.3984408741462527	0.0	0.837644564721216	-0.39583752767404784	0.0
52	1.7421768707482992	0.9184945192439951	-0.28685228225684706	0.0	0.9136986921492601	-0.2924538053923205	0.0	0.8224893401063665	-0.3875947714471486	0.0	0.7154300791574035	-0.42543023159303134	0.0	0.6925406669946993	-0.4696212632066092	0.0	0.6856216077296133	-0.4625644175690922	0.0	0.6983262855980729	-0.410644287139461	0.0	0.9192793024808451	-0.2950156452809862	0.0	0.8413969794999852	-0.38658354357299957	0.0	0.806382971144417	-0.2912189162140614	0.0	0.7629719050373905	-0.3080971351255779	0.0	0.7564981765958775	-0.3672649000447349	0.0	0.8045174632573338	-0.28224869695944305	0.0	0.9868981688098234	-0.43207515337189956	0.0	0.9957428550185475	-0.5060632663943597	0.0	0.9629724660978324	-0.47630235856910463	0.0	0.9747002165905219	-0.4207060496119718	0.0	0.8814273569213134	-0.3965060456340877	0.0	0.8281855670281271	-0.4089384841536424	0.0	0.9939902142876241	-0.4238057642188894	0.0	0.8823391485064671	-0.39252620271374966	0.0	0.8409897015816805	-0.3792759153363439	0.0
53	1.7756802721088434	0.9337634796171259	-0.28558034428691026	0.0	0.9283143295207881	-0.2904204078836653	0.0	0.8315255824404	-0.38003539442198436	0.0	0.7223632105427628	-0.41260518212277997	0.0	0.6965061810583139	-0.4549044401698851	0.0	0.6897710982969345	-0.4479686053709569	0.0	0.7059670108672027	-0.38855897085271535	0.0	0.9345412183545717	-0.29316103569060165	0.0	0.8507272793891459	-0.3811109803250797	0.0	0.8247305796589677	-0.28326180587116645	0.0	0.7829583461547304	-0.2791655859123276	0.0	0.7771315269296685	-0.34387424485547535	0.0	0.8215603012862146	-0.27375458078180737	0.0	0.9870689379831682	-0.4348382130021447	0.0	0.9921186024223055	-0.5104228436107299	0.0	0.9615278827457369	-0.4781142264637234	0.0	0.9757910677720211	-0.422628326152173	0.0	0.8795577449595127	-0.3905754993549252	0.0	0.8292586514111419	-0.39777656339211026	0.0	0.9953236222389866	-0.42713905396419977	0.0	0.8809406455138493	-0.3865590969270042	0.0	0.8460793342010813	-0.36701330941348237	0.0
54	1.8091836734693876	0.9485403510459429	-0.2857447557955794	0.0	0.9431663717915447	-0.28938051110042873	0.0	0.8407189117712729	-0.37256629077101583	0.0	0.7296855366268794	-0.4000360801038203	0.0	0.6994210059674206	-0.44014402394341057	0.0	0.6932243239960219	-0.43362373365024265	0.0	0.7166729137154559	-0.3700601828809995	0.0	0.949209737994934	-0.2925531834593702	0.0	0.8594226198679024	-0.3756962390281838	0.0	0.8433133750562061	-0.27615772284778195	0.0	0.8027958916141359	-0.2584727204910593	0.0	0.7937951978161756	-0.3161481454542173	0.0	0.8385475840676415	-0.266309367987604	0.0	0.9870705533475894	-0.43714256175835936	0.0	0.9879686272681495	-0.5145931292521747	0.0	0.9603306378929194	-0.4788217855646055	0.0	0.9774340645188586	-0.4239427022289275	0.0	0.8831646572465846	-0.38498470456117656	0.0	0.834763769292328	-0.385628844951802	0.0	0.9958870954411361	-0.429426222332059	0.0	0.8844888928110078	-0.3807089988218913	0.0	0.8530831977004562	-0.35966166596890176	0.0
55	1.8426870748299318	0.9625737448255499	-0.2871800716953032	0.0	0.9579745496015944	-0.2892809465405662	0.0	0.8501278612534965	-0.36540162630727535	0.0	0.7374138089330818	-0.387380250018579	0.0	0.7017816451928152	-0.42498515956807464	0.0	0.6965115186364274	-0.41879867923035613	0.0	0.7311198378152258	-0.357192630879155	0.0	0.9630833661610615	-0.29308504534015556	0.0	0.8676927311238901	-0.3702614226105555	0.0	0.8619008309298841	-0.26967089160725827	0.0	0.8228720008970996	-0.24651920919834866	0.0	0.8046706394438929	-0.28763727847856513	0.0	0.8556470518264775	-0.25954333840757865	0.0	0.9870036297164488	-0.43910939424675666	0.0	0.9837399238074938	-0.5184519703252222	0.0	0.9594637952095907	-0.47854747612130827	0.0	0.9795842110337792	-0.42488896683973365	0.0	0.8926439559141748	-0.3799746589175403	0.0	0.846796411901348	-0.37278368121398775	0.0	0.9959640620744538	-0.4308041052746889	0.0	0.8933503953406852	-0.37511154455841833	0.0	0.8618196530621869	-0.3549948012964645	0.0
56	1.876190476190476	0.9760665920639777	-0.2897455880731864	0.0	0.9726297532196212	-0.2901229948608643	0.0	0.8600990896803207	-0.3588033654407152	0.0	0.7456648816690074	-0.37420221190029324	0.0	0.7044904489893893	-0.40905105849835915	0.0	0.700479516915444	-0.4026785223069229	0.0	0.748767528031933	-0.34768680183572165	0.0	0.9764472766094696	-0.2945204196649043	0.0	0.8759732860130832	-0.364755413448335	0.0	0.8803232208219516	-0.2637213471527221	0.0	0.8430139591378614	-0.24126009565728615	0.0	0.8093576628613454	-0.2632907868767819	0.0	0.8732006546327987	-0.2533794584670507	0.0	0.9870254595205726	-0.44090464953888486	0.0	0.9795132911021287	-0.52165544558848	0.0	0.9588150326259474	-0.4775407889875213	0.0	0.9822714826236297	-0.42578984973495054	0.0	0.9059511982086239	-0.37527008363994574	0.0	0.8638023646033727	-0.3602031260749185	0.0	0.9958829352475902	-0.431658521199845	0.0	0.9056609404065107	-0.36981806720737864	0.0	0.87220728332911	-0.3500105389740465	0.0
57	1.9096938775510202	0.9894659788341394	-0.29336494373390837	0.0	0.9873007955509072	-0.2919335455789178	0.0	0.871045760370449	-0.35289286536505865	0.0	0.7547070226523066	-0.3601309287043849	0.0	0.7085128375231153	-0.3919071071925757	0.0	0.7060783561384145	-0.3846146524407778	0.0	0.7670088256435688	-0.33783934578899266	0.0	0.9898112640290427	-0.29668491720131956	0.0	0.8847650793020386	-0.3591068225074962	0.0	0.8983387721053776	-0.25833508572791813	0.0	0.8627765228460164	-0.23991318496773412	0.0	0.8085767209721849	-0.2464440460896	0.0	0.8917801513156786	-0.2479172943564236	0.0	0.987308846312208	-0.4425650425240147	0.0	0.9748787771167633	-0.5237271337894586	0.0	0.9580314343977425	-0.4759568061246938	0.0	0.9856560115450291	-0.42685751863593124	0.0	0.9201569277807018	-0.3703046788316476	0.0	0.8825568612343296	-0.3484361085093517	0.0	0.9959748639382022	-0.43232412288608885	0.0	0.9187868809161083	-0.36483662984638404	0.0	0.884547853871331	-0.34291297167335105	0.0
